Coordinates
version=1
nRows=32
nColumns=34
inDegrees=no

Units are S.I. units (second, meters, Newtons, ...)
If the header above contains a line with 'inDegrees', this indicates whether rotational values are in degrees (yes) or radians (no).

endheader
time	pelvis_tilt	pelvis_list	pelvis_rotation	pelvis_tx	pelvis_ty	pelvis_tz	hip_flexion_r	hip_adduction_r	hip_rotation_r	knee_angle_r	ankle_angle_r	subtalar_angle_r	mtp_angle_r	hip_flexion_l	hip_adduction_l	hip_rotation_l	knee_angle_l	ankle_angle_l	subtalar_angle_l	mtp_angle_l	lumbar_extension	lumbar_bending	lumbar_rotation	arm_flex_r	arm_add_r	arm_rot_r	elbow_flex_r	pro_sup_r	arm_flex_l	arm_add_l	arm_rot_l	elbow_flex_l	pro_sup_l
1.7	-0.273555	-0.0428684	0.0672761	-0.310772	0.533769	-0.600948	1.66705	-0.119783	0.059735	1.97322	0.650437	-0.163655	-0.14278	1.66438	-0.214881	0.110402	2.01451	0.740956	0.160781	-0.142772	-0.658451	0.0155161	-0.158582	2.13769	-0.366802	0.483355	2.03403	1.4419	2.32155	-0.22345	0.591444	1.71829	1.98182
1.71	-0.279075	-0.040943	0.0688961	-0.307818	0.545494	-0.600706	1.64049	-0.120065	0.0545181	1.94001	0.641595	-0.172989	-0.142781	1.63787	-0.213155	0.0999566	1.98052	0.72795	0.156174	-0.142772	-0.640239	0.0150308	-0.16396	2.13762	-0.381176	0.489389	2.03986	1.42911	2.32521	-0.234585	0.609545	1.71918	1.96902
1.72	-0.283001	-0.0381429	0.069781	-0.3046	0.557888	-0.600452	1.61164	-0.120238	0.0498755	1.90513	0.630873	-0.182297	-0.142781	1.60854	-0.211962	0.0883782	1.94505	0.712609	0.150494	-0.142773	-0.622168	0.0134331	-0.168551	2.1331	-0.398039	0.495145	2.04907	1.4122	2.32691	-0.250467	0.631429	1.72523	1.95452
1.73	-0.285152	-0.0348266	0.0696519	-0.301087	0.570938	-0.600151	1.58027	-0.119945	0.0453712	1.86861	0.618051	-0.191725	-0.142782	1.57642	-0.211767	0.0760592	1.90833	0.694966	0.143937	-0.142773	-0.604337	0.010886	-0.171911	2.12409	-0.41731	0.501156	2.06203	1.39098	2.32699	-0.271077	0.657462	1.73656	1.93775
1.74	-0.2854	-0.0313834	0.0683642	-0.297251	0.584633	-0.599773	1.5462	-0.118947	0.0406073	1.83046	0.602979	-0.201338	-0.142782	1.54155	-0.212913	0.0633389	1.8705	0.675169	0.136776	-0.142774	-0.586795	0.00767731	-0.17375	2.11084	-0.438865	0.508297	2.07909	1.36593	2.32589	-0.296244	0.687863	1.75324	1.91812
1.75	-0.283702	-0.0281658	0.0659392	-0.29307	0.59895	-0.5993	1.50933	-0.117176	0.0352886	1.79069	0.585601	-0.211109	-0.142782	1.504	-0.215552	0.0504363	1.8317	0.65347	0.129314	-0.142775	-0.569509	0.00416394	-0.174008	2.09389	-0.462596	0.517885	2.10057	1.3383	2.32414	-0.325643	0.722727	1.77523	1.8952
1.76	-0.280122	-0.0254367	0.0625692	-0.288532	0.613863	-0.598735	1.46965	-0.114768	0.0292418	1.7493	0.565964	-0.220931	-0.142783	1.46389	-0.219617	0.0374246	1.79194	0.630204	0.121843	-0.142775	-0.552357	0.000708106	-0.172885	2.07417	-0.488482	0.531715	2.12673	1.31003	2.32232	-0.358798	0.7621	1.80248	1.86885
1.77	-0.274832	-0.0233409	0.0585941	-0.28363	0.629356	-0.598095	1.42726	-0.11205	0.0223973	1.70629	0.544193	-0.230643	-0.142783	1.42134	-0.224825	0.0242447	1.75114	0.605736	0.114622	-0.142776	-0.535123	-0.00238376	-0.170816	2.05285	-0.516648	0.551997	2.15767	1.28347	2.32106	-0.395107	0.806103	1.83491	1.83917
1.78	-0.268099	-0.021896	0.0544549	-0.278366	0.645419	-0.597411	1.38236	-0.1095	0.0147472	1.66161	0.520457	-0.240055	-0.142783	1.37652	-0.230711	0.0107515	1.7091	0.580382	0.107858	-0.142777	-0.517515	-0.0049106	-0.168393	2.03129	-0.547405	0.581142	2.19335	1.26082	2.32102	-0.433871	0.855046	1.87254	1.80605
1.79	-0.260269	-0.0209947	0.0506376	-0.272741	0.662048	-0.596726	1.33518	-0.107687	0.0063015	1.61512	0.494916	-0.248921	-0.142784	1.32953	-0.236671	-0.00322531	1.66539	0.554302	0.101714	-0.142777	-0.499193	-0.00681213	-0.16626	2.0107	-0.581256	0.621388	2.23341	1.24389	2.32277	-0.474318	0.909465	1.91536	1.76924
1.8	-0.251734	-0.0204145	0.0476164	-0.266766	0.679249	-0.596088	1.28592	-0.107202	-0.00294365	1.56654	0.467648	-0.2569	-0.142784	1.28043	-0.242	-0.0178199	1.61932	0.527374	0.0963018	-0.142778	-0.479795	-0.008191	-0.164984	1.99175	-0.618868	0.674278	2.27711	1.23406	2.32677	-0.515607	0.970031	1.96321	1.72883
1.81	-0.242905	-0.0198306	0.0458076	-0.260456	0.697053	-0.595544	1.2347	-0.108595	-0.0130256	1.51538	0.438568	-0.263492	-0.142785	1.2291	-0.245914	-0.033078	1.56983	0.499072	0.0916922	-0.142779	-0.458988	-0.00931619	-0.164937	1.97406	-0.661002	0.740043	2.32327	1.2321	2.33315	-0.556806	1.03735	2.01562	1.68576
1.82	-0.234153	-0.018844	0.0455309	-0.25383	0.715514	-0.59514	1.18149	-0.112316	-0.0240292	1.46081	0.407322	-0.26799	-0.142785	1.17527	-0.24758	-0.0489114	1.51547	0.468374	0.0879058	-0.142779	-0.436504	-0.010601	-0.166173	1.95567	-0.708403	0.816962	2.37027	1.23801	2.34155	-0.596875	1.11167	2.07166	1.64191
1.83	-0.225758	-0.0170552	0.0469832	-0.246913	0.734713	-0.5949	1.12605	-0.11864	-0.0361028	1.40169	0.373199	-0.269469	-0.142785	1.11842	-0.24614	-0.0650668	1.45439	0.433716	0.084907	-0.14278	-0.41218	-0.0125653	-0.168333	1.93252	-0.761633	0.900838	2.41616	1.25068	2.35097	-0.634674	1.19263	2.12995	1.5997
1.84	-0.217915	-0.0140667	0.0502261	-0.239725	0.754744	-0.594845	1.0679	-0.127588	-0.0494841	1.33649	0.335064	-0.26682	-0.142786	1.05787	-0.2408	-0.0811184	1.38439	0.393049	0.0825882	-0.142781	-0.386001	-0.015722	-0.170583	1.89832	-0.820855	0.984753	2.4588	1.26789	2.35963	-0.669022	1.27902	2.18855	1.562
1.85	-0.210707	-0.00955767	0.0551602	-0.232283	0.775706	-0.594981	1.00636	-0.138873	-0.0645113	1.26343	0.291363	-0.258866	-0.142786	0.992815	-0.230901	-0.0965315	1.30318	0.344001	0.080733	-0.142781	-0.358117	-0.0204896	-0.171656	1.84474	-0.885583	1.05924	2.49591	1.28648	2.365	-0.698815	1.36875	2.24513	1.5315
1.86	-0.20409	-0.00333549	0.0615288	-0.224609	0.797677	-0.595295	0.940694	-0.151901	-0.0816222	1.18062	0.240236	-0.244538	-0.142786	0.922495	-0.216002	-0.110796	1.20862	0.284196	0.078946	-0.142782	-0.328851	-0.0271202	-0.169999	1.76224	-0.954413	1.11304	2.52531	1.30294	2.36404	-0.723185	1.459	2.29723	1.50963
1.87	-0.197906	0.00463408	0.0689372	-0.216748	0.820684	-0.595777	0.870219	-0.165812	-0.101341	1.08643	0.179779	-0.223115	-0.142787	0.846367	-0.19596	-0.123616	1.09925	0.211715	0.0765729	-0.142782	-0.298694	-0.0356414	-0.164029	1.64155	-1.02484	1.13454	2.54494	1.3142	2.35346	-0.741684	1.54646	2.34252	1.49618
1.88	-0.191919	0.0142127	0.0768784	-0.208779	0.844682	-0.596417	0.794583	-0.179582	-0.124247	0.979863	0.108455	-0.194491	-0.142787	0.764366	-0.171019	-0.135119	0.974841	0.125683	0.0726624	-0.142783	-0.268262	-0.0458192	-0.152449	1.47576	-1.09316	1.1139	2.55298	1.31841	2.33023	-0.754454	1.62777	2.3791	1.48941
1.89	-0.185874	0.0250964	0.0847645	-0.200825	0.869532	-0.597214	0.714032	-0.192149	-0.150903	0.861137	0.0256234	-0.159443	-0.142787	0.67717	-0.141882	-0.146042	0.83691	0.0268853	0.0660139	-0.142784	-0.238216	-0.0571586	-0.134583	1.26274	-1.15469	1.04547	2.54793	1.3156	2.29192	-0.762355	1.69987	2.40574	1.48659
1.9	-0.179565	0.0368465	0.0919661	-0.193047	0.89499	-0.598169	0.62966	-0.202563	-0.181729	0.732122	-0.0679089	-0.119816	-0.142788	0.586405	-0.109731	-0.157801	0.689217	-0.0817414	0.0553403	-0.142784	-0.209179	-0.0689553	-0.110629	1.00735	-1.20421	0.930275	2.52863	1.30789	2.237	-0.766985	1.7602	2.42206	1.48471
1.91	-0.172876	0.0489269	0.0978631	-0.185613	0.920719	-0.599256	0.543541	-0.210133	-0.216834	0.596683	-0.169476	-0.0785928	-0.142788	0.494709	-0.0761766	-0.172374	0.537858	-0.194976	0.0395353	-0.142785	-0.181667	-0.0803911	-0.0817707	0.722653	-1.23688	0.777423	2.49432	1.29938	2.1649	-0.770535	1.80681	2.42855	1.48129
1.92	-0.165783	0.0607492	0.101912	-0.178646	0.94632	-0.600422	0.458674	-0.214536	-0.255828	0.460674	-0.274472	-0.0397497	-0.142789	0.405591	-0.0431199	-0.191907	0.390925	-0.305771	0.0180026	-0.142786	-0.156072	-0.0906403	-0.050075	0.429134	-1.24933	0.603786	2.44472	1.29546	2.07588	-0.775481	1.83813	2.42648	1.47512
1.93	-0.158363	0.0716632	0.103719	-0.172206	0.971369	-0.601569	0.378695	-0.215864	-0.297669	0.331504	-0.376798	-0.00782459	-0.142789	0.32305	-0.0125337	-0.218055	0.257596	-0.406448	-0.00903626	-0.142786	-0.132694	-0.0989889	-0.0181841	0.151344	-1.24057	0.431003	2.38005	1.30173	1.97065	-0.784116	1.85269	2.41749	1.46685
1.94	-0.150825	0.0810747	0.103089	-0.166339	0.995472	-0.602582	0.307373	-0.214585	-0.340576	0.217247	-0.469922	0.0128198	-0.142789	0.250968	0.0137832	-0.251174	0.146706	-0.490474	-0.0403418	-0.142787	-0.111832	-0.104872	0.0111035	-0.0875537	-1.2123	0.280376	2.3011	1.32255	1.8501	-0.798063	1.84886	2.40329	1.45916
1.95	-0.143393	0.0885153	0.100066	-0.161148	1.01841	-0.603367	0.248001	-0.211433	-0.382039	0.125367	-0.548364	0.0189513	-0.14279	0.192408	0.0344503	-0.289667	0.0651005	-0.554166	-0.0736292	-0.142788	-0.0938491	-0.10793	0.0352834	-0.270825	-1.16843	0.167998	2.20915	1.35977	1.71508	-0.817871	1.82484	2.3852	1.45634
1.96	-0.136198	0.093695	0.0949246	-0.156785	1.04021	-0.603838	0.202779	-0.207278	-0.419026	0.0613569	-0.60902	0.00942754	-0.14279	0.149035	0.0486748	-0.329904	0.0163642	-0.597392	-0.105751	-0.142788	-0.0792478	-0.108053	0.0525197	-0.390794	-1.11398	0.102086	2.10598	1.41161	1.56653	-0.842771	1.77897	2.36392	1.4633
1.97	-0.129171	0.0965591	0.0881518	-0.153391	1.06099	-0.603953	0.172394	-0.202983	-0.448462	0.0277579	-0.651594	-0.0141627	-0.14279	0.120914	0.0563125	-0.366992	0.000478645	-0.622819	-0.133033	-0.142789	-0.06873	-0.105394	0.0618838	-0.448884	-1.05397	0.0826911	1.99382	1.47239	1.40589	-0.870647	1.7103	2.33946	1.48409
1.98	-0.122004	0.0972936	0.0803769	-0.151091	1.08085	-0.603706	0.155959	-0.199292	-0.467938	0.0238868	-0.677978	-0.0473984	-0.142791	0.106635	0.057829	-0.396157	0.0142029	-0.634265	-0.151697	-0.142789	-0.0631698	-0.10034	0.0635005	-0.453998	-0.992475	0.102949	1.87529	1.53322	1.23552	-0.898172	1.61926	2.3112	1.51972
1.99	-0.114098	0.0962628	0.0722426	-0.149953	1.09986	-0.603139	0.151167	-0.19669	-0.476189	0.0461694	-0.691178	-0.083873	-0.142791	0.103463	0.054206	-0.413941	0.0516868	-0.635577	-0.158808	-0.14279	-0.0635516	-0.0934253	0.058426	-0.419539	-0.932248	0.151662	1.75318	1.58388	1.05914	-0.921378	1.50826	2.27817	1.56781
2	-0.104683	0.0939002	0.0642761	-0.149954	1.11799	-0.602336	0.154684	-0.19528	-0.473247	0.0887478	-0.694415	-0.116675	-0.142791	0.107659	0.0468222	-0.418873	0.105168	-0.630188	-0.153277	-0.142791	-0.0707092	-0.0852255	0.0483538	-0.360204	-0.874775	0.216168	1.63014	1.61624	0.881856	-0.936446	1.38185	2.23915	1.62398
2.01	-0.0929922	0.0906208	0.0568072	-0.150945	1.13521	-0.601391	0.162665	-0.194794	-0.460411	0.144324	-0.690581	-0.139754	-0.142792	0.114955	0.0372594	-0.411459	0.165891	-0.620975	-0.136362	-0.142791	-0.0850938	-0.0762792	0.0353473	-0.289619	-0.82055	0.284547	1.50849	1.62586	0.709768	-0.940334	1.24643	2.19296	1.68263
